# xmcd
#
# Track frame offsets:
# 150
# 28185
# 51705
# 83102
# 100443
# 116471
# 121467
# 170436
# 175292
#
# Disc length: 2944 seconds
#
#
# Revision: 1
# Processed by: cddbd v1.5PL3 Copyright (c) Steve Scherf et al.
# Submitted via: FreeRIP 2.53 
#
DISCID=7c0b7e09
DTITLE=Andrey Cechelero - Mundo das Aguas - Vol 3 - Chuvas
DYEAR=2002
DGENRE=New Age
TTITLE0=The Rainmaker
TTITLE1=Neve
TTITLE2=Ela e a Tempestade
TTITLE3=Noturno n.3 - Pleurs
TTITLE4=December Storm
TTITLE5=Interlude - Sol por entre as Gotas
TTITLE6=Brisa e Garoa
TTITLE7=Interlude - Sol por entre as Gotas 2
TTITLE8=O Coração que tornou-se Chuva
EXTD=
EXTT0=
EXTT1=
EXTT2=
EXTT3=
EXTT4=
EXTT5=
EXTT6=
EXTT7=
EXTT8=
PLAYORDER=
